<svg xmlns="http://www.w3.org/2000/svg" width="95" height="83" fill="none">
  <defs>
    <linearGradient id="bg" x1="47.5" y1="0" x2="47.5" y2="82.4" gradientUnits="userSpaceOnUse">
      <stop offset="0%" stop-color="#FDBA74"/>
      <stop offset="25%" stop-color="#FB923C"/>
      <stop offset="50%" stop-color="#F97316"/>
      <stop offset="75%" stop-color="#EA580C"/>
      <stop offset="100%" stop-color="#C2410C"/>
    </linearGradient>
    <filter id="s">
      <feDropShadow dx="0" dy="1" stdDeviation="1.5" flood-color="#000" flood-opacity="0.15"/>
    </filter>
  </defs>
  <path fill="url(#bg)" d="M66.657 0H28.343a7.948 7.948 0 0 0-6.887 3.979L2.288 37.235a7.948 7.948 0 0 0 0 7.938L21.456 78.43a7.948 7.948 0 0 0 6.887 3.979h38.314a7.948 7.948 0 0 0 6.886-3.98l19.17-33.256a7.948 7.948 0 0 0 0-7.938L73.542 3.98A7.948 7.948 0 0 0 66.657 0Z"/>
  <g filter="url(#s)">
    <rect x="28" y="22" width="39" height="9" rx="2.5" fill="#fff"/>
    <rect x="28" y="35" width="39" height="9" rx="2.5" fill="#fff" opacity="0.72"/>
    <rect x="28" y="48" width="39" height="9" rx="2.5" fill="#fff" opacity="0.44"/>
  </g>
</svg>
